<?xml version="1.0" encoding="UTF-8" standalone="no"?>
<svg
   viewBox="0 0 512 512"
   version="1.1"
   id="svg1771"
   sodipodi:docname="html5.svg"
   inkscape:export-filename="html5.svg"
   inkscape:export-xdpi="96"
   inkscape:export-ydpi="96"
   inkscape:version="1.2.1 (9c6d41e4, 2022-07-14)"
   xmlns:inkscape="http://www.inkscape.org/namespaces/inkscape"
   xmlns:sodipodi="http://sodipodi.sourceforge.net/DTD/sodipodi-0.dtd"
   xmlns="http://www.w3.org/2000/svg"
   xmlns:svg="http://www.w3.org/2000/svg"
   xmlns:rdf="http://www.w3.org/1999/02/22-rdf-syntax-ns#"
   xmlns:cc="http://creativecommons.org/ns#"
   xmlns:dc="http://purl.org/dc/elements/1.1/">
  <defs
     id="defs1775" />
  <sodipodi:namedview
     id="namedview1773"
     pagecolor="#ffffff"
     bordercolor="#000000"
     borderopacity="0.25"
     inkscape:showpageshadow="2"
     inkscape:pageopacity="0.0"
     inkscape:pagecheckerboard="0"
     inkscape:deskcolor="#d1d1d1"
     showgrid="false"
     inkscape:zoom="0.52530211"
     inkscape:cx="167.52265"
     inkscape:cy="374.07046"
     inkscape:window-width="1440"
     inkscape:window-height="847"
     inkscape:window-x="0"
     inkscape:window-y="25"
     inkscape:window-maximized="0"
     inkscape:current-layer="svg1771" />
  <title
     id="title1761">HTML5 Logo Badge</title>
  <rect
     style="fill:#e34f26;fill-opacity:1"
     id="rect2259"
     width="510.18262"
     height="513.98993"
     x="0"
     y="-1.9036665" />
  <path
     fill="#e34f26"
     d="M 109.93863,416.9459 77.591661,54.028671 H 433.40834 L 401.06137,416.9459 255.10552,457.97133"
     id="path1763"
     style="stroke-width:0.788951" />
  <path
     fill="#ef652a"
     d="M 255.89448,426.41331 373.4481,394.06634 401.06137,83.219839 H 255.89448"
     id="path1765"
     style="stroke-width:0.788951" />
  <path
     fill="#ebebeb"
     d="m 255.89448,218.13038 h -59.17129 l -3.94476,-45.75913 h 63.11605 V 128.19002 H 255.10552 143.8635 l 0.78895,11.83426 11.04531,123.07627 h 100.19672 z m 0,115.97572 h -0.78896 l -49.70388,-13.41216 -3.1558,-35.50277 h -23.66851 -20.51272 l 5.52266,70.21659 91.51825,25.24642 h 0.78896 z"
     id="path1767"
     style="stroke-width:0.788951" />
  <path
     fill="#ffffff"
     d="m 255.10552,218.13038 v 44.97017 h 55.22654 l -5.52265,57.59339 -49.70389,13.41216 v 46.54808 l 91.51826,-25.24642 0.78895,-7.8895 10.25636,-117.55363 1.5779,-11.83425 h -12.62321 z m 0,-89.94036 v 27.61327 16.56796 0 h 108.08622 v 0 0 l 0.78895,-9.46741 2.36686,-22.87956 0.78895,-11.83426 z"
     id="path1769"
     style="stroke-width:0.788951" />
  <metadata
     id="metadata149">
    <rdf:RDF>
      <cc:Work
         rdf:about="">
        <dc:title>HTML5 Logo Badge</dc:title>
      </cc:Work>
    </rdf:RDF>
  </metadata>
</svg>
